<svg xmlns="http://www.w3.org/2000/svg" width="64" height="64" viewBox="0 0 64 64" fill="none">
  <rect x="2" y="2" width="60" height="60" rx="14" stroke="#0B1B2E" stroke-width="2"/>
  
  <path d="M15 19h25a6 6 0 0 1 6 6v13a6 6 0 0 1-6 6H28l-8 7v-7h-5a6 6 0 0 1-6-6V25a6 6 0 0 1 6-6Z" stroke="#0B1B2E" stroke-width="3" stroke-linejoin="round"/>
  <path d="M21 29h14M21 36h9" stroke="#0B1B2E" stroke-width="3" stroke-linecap="round"/>
  <circle cx="45" cy="45" r="7" stroke="#29B8E5" stroke-width="3"/>
  <path d="M45 41v8M41 45h8" stroke="#29B8E5" stroke-width="3" stroke-linecap="round"/>

</svg>
