<svg xmlns="http://www.w3.org/2000/svg" width="64" height="64" viewBox="0 0 64 64" fill="none">
  <rect x="2" y="2" width="60" height="60" rx="14" stroke="#0B1B2E" stroke-width="2"/>
  
  <path d="M12 19h24a5 5 0 0 1 5 5v11a5 5 0 0 1-5 5H24l-8 6v-6h-4a5 5 0 0 1-5-5V24a5 5 0 0 1 5-5Z" stroke="#0B1B2E" stroke-width="3" stroke-linejoin="round"/>
  <path d="M27 25h25a5 5 0 0 1 5 5v11a5 5 0 0 1-5 5H40l-8 6v-6" stroke="#29B8E5" stroke-width="3" stroke-linejoin="round" stroke-linecap="round"/>
  <path d="M18 29h12M33 35h12" stroke="#0B1B2E" stroke-width="3" stroke-linecap="round"/>

</svg>
